<?xml version="1.0" encoding="UTF-8" standalone="no"?>
<!-- Created with Inkscape (http://www.inkscape.org/) -->

<svg
   version="1.1"
   id="svg1"
   width="4583.5254"
   height="4310.5142"
   viewBox="0 0 4583.5254 4310.5141"
   xmlns="http://www.w3.org/2000/svg"
   xmlns:svg="http://www.w3.org/2000/svg">
  <defs
     id="defs1">
    <clipPath
       clipPathUnits="userSpaceOnUse"
       id="clipPath3">
      <path
         d="M 0,5053.23 H 4540.607 V 0 H 0 Z"
         transform="translate(-2346.5362,-3133.5724)"
         id="path3" />
    </clipPath>
  </defs>
  <g
     id="g1"
     transform="translate(-1359.5857,-704.50777)">
    <g
       id="group-MC0">
      <path
         id="path2"
         clip-path="url(#clipPath3)"
         style="fill:#231f20;fill-opacity:1;fill-rule:nonzero;stroke:none"
         d="m -231.18473,1104.7724 c -6.51066,0.018 -12.07116,0.019 -15.32666,-0.013 -13.021,-0.128 -12.12745,-7.2773 -12.12745,-7.2773 l -1.02099,-121.4678 c 0,0 52.53099,-0.447 62.04199,0 9.511,0.447 20.93701,-2.93644 20.93701,7.85156 0,10.787 -7.91601,10.08545 -7.91601,10.08545 l -44.42432,0.38086 c -4.979,14.17103 -0.38379,44.04343 -0.38379,44.04343 h 42.89356 c 8.043,7.277 0.6709,20.9209 0.6709,20.9209 l -44.33057,0.9097 c -7.66,5.361 -1.53223,25.2759 -1.53223,25.2759 l 47.49024,0.3838 c 0,0 8.68067,-2.2997 7.65967,8.4243 -1.022,10.723 -7.02247,10.2143 -7.02247,10.2143 0,0 -28.07691,0.2144 -47.60888,0.2681 z m -260.64845,-34.5967 c -13.73483,0.079 -20.97656,-7.1616 -20.97656,-7.1616 l -34.8501,-89.61767 -42.12744,94.97897 c -35.235,6.128 -39.44824,-6.8935 -39.44824,-6.8935 l -1.53077,-121.40481 c 0,0 3.06389,-3.63811 15.25489,-3.76611 12.192,-0.127 14.04199,3.38378 14.04199,3.38378 0,0 -1.53009,76.59604 -1.91309,90.00004 -0.383,13.405 4.78565,8.4257 4.78565,8.4257 l 37.91601,-98.68062 c 15.446,-8.553 24.89356,1.40332 24.89356,1.40332 0,0 13.02077,24.51157 24.50977,62.8096 11.49,38.298 17.23388,42.126 17.23388,42.126 0,0 -2.29687,-99.5737 -2.29687,-104.7437 0,-5.17 7.37088,-5.55423 16.27588,-6.03223 8.904,-0.479 10.91601,6.22412 10.91601,6.22412 V 1064.164 c -8.85656,4.4278 -16.44146,5.9759 -22.68457,6.0117 z m 548.375993,-4.0444 C 40.531365,1065.6346 39.83041,1051.1415 39.83041,1051.1415 L 39.062832,935.09955 c -0.192,-0.511 4.020887,-4.21322 14.233887,-5.55322 10.213,-1.34 11.425782,5.55322 11.425782,5.55322 0,0 0.127,66.12755 0,84.89355 -0.127,18.766 5.361328,8.9356 5.361328,8.9356 19.533,-44.80905 51.319341,-94.21294 51.319341,-94.21294 27.192,-13.404 32.55322,6.89356 32.55322,6.89356 l -1.14697,121.78708 c -15.321,5.745 -26.42725,-3.8291 -26.42725,-3.8291 l 5.36133,-104.93699 c -18.765,26.042 -57.829104,107.99999 -57.829104,107.99999 -7.204532,2.6808 -12.888377,3.6401 -17.371583,3.501 z M -869.99285,985.28363 c -6.51061,0.018 -12.07142,0.0173 -15.32667,-0.0146 -13.021,-0.128 -12.12744,-7.27587 -12.12744,-7.27587 l -1.02099,-121.46925 c 0,0 52.53199,-0.447 62.04199,0 9.511,0.447 20.93701,-2.93543 20.93701,7.85157 0,10.788 -7.91601,10.08545 -7.91601,10.08545 l -44.42579,0.38232 c -4.979,14.17 -0.38232,44.04346 -0.38232,44.04346 h 42.89356 c 8.042,7.277 0.67089,20.91943 0.67089,20.91943 l -44.33056,0.90967 c -7.659,5.362 -1.53223,25.27735 -1.53223,25.27735 l 47.48877,0.38232 c 0,0 8.68313,-2.29822 7.66113,8.42578 -1.021,10.723 -7.02099,10.21289 -7.02099,10.21289 0,0 -28.07853,0.21553 -47.61035,0.26953 z M 398.63657,954.14545 c -9.33511,-0.0449 -15.88141,-0.20088 -16.74316,-0.53613 -3.446,-1.34 -3.44667,-13.02145 -2.68067,-16.08545 0.765,-3.064 11.10466,-5.55289 23.74366,-4.21289 12.639,1.341 16.46955,-1.53132 15.89355,-21.44532 -0.575,-19.915 -1.14844,-87.89355 -1.14844,-87.89355 0,0 15.70189,-5.74511 26.23389,0.19189 l 1.91455,109.91309 35.42578,1.1499 c 0,0 6.32091,-0.38379 6.12891,8.61621 -0.191,9 -7.66113,9.57422 -7.66113,9.57422 0,0 -53.10161,0.86261 -81.10694,0.72803 z M -1133.8054,864.75482 c -25.3461,-0.38474 -38.6206,-18.12451 -38.6206,-18.12451 -38.808,-44.042 -13.9146,-93.06422 5.3614,-105.57422 19.277,-12.511 64.4677,-3.57422 64.4677,-3.57422 16.468,9.575 13.7878,15.702 10.3418,22.979 -3.447,7.277 -29.4902,-5.36279 -29.4902,-5.36279 0,0 -37.1484,-11.48899 -42.1274,45.95801 11.49,62.425 62.0419,34.08545 62.0419,34.08545 0,0 8.6168,-0.67046 11.9678,4.97754 3.351,5.65 -2.0097,11.10791 -2.0097,11.10791 -16.396,10.2925 -30.4117,13.70271 -41.9327,13.52783 z M 692.92808,819.62445 c -1.29297,-4.4e-4 -2.60879,-0.0192 -3.94922,-0.0571 0,0 -57.70367,-10.21277 -53.61767,-71.48877 4.086,-61.277 29.61678,-65.36234 68.42578,-63.31934 38.809,2.042 58.21266,23.42466 58.72266,61.72266 0,0 11.8756,73.17007 -69.58155,73.14258 z m 8.56348,-24.91699 c 15.80195,0.0948 26.16797,-12.79981 26.16797,-12.79981 0,0 14.17054,-22.21268 4.97754,-53.61768 -9.19,-31.404 -44.42432,-23.36132 -44.42432,-23.36132 0,0 -16.46902,-1.14834 -24.89502,38.68066 -8.426,39.83 26.42578,48.63867 26.42578,48.63867 4.16494,1.72332 8.10144,2.43761 11.74805,2.45948 z M 1091.4886,756.24798 -1524.2565,-1858.7311 c 0,0 -4.5958,-23.7435 1.5322,-32.9355 6.128,-9.191 36,0 36,0 L 1132.85,728.67376 l 3.0644,26.042 c 0,0 -6.8928,2.29822 -44.4258,1.53222 z M -1482.3195,645.69476 c -14.17,-0.575 -16.0855,-9.57422 -16.0855,-9.57422 0,0 0.4477,-103.27634 0.5757,-111.31934 0.127,-8.042 2.042,-8.68066 2.042,-8.68066 0,0 27.8301,-4.34113 49.7871,-2.68213 21.958,1.66 25.7863,10e-4 26.4243,9.44824 0.639,9.447 -8.5532,9.06299 -8.5532,9.06299 0,0 -33.7007,-0.57433 -37.7227,-0.38233 -4.022,0.192 -3.6372,5.36133 -3.6372,5.36133 l 0.3824,97.85157 c 0,0 0.9571,11.48855 -13.2129,10.91455 z m 2618.146,-213.56251 c -13.7348,0.0792 -20.9765,-7.16162 -20.9765,-7.16162 l -34.8501,-89.61621 -42.1289,94.979 c -35.232,6.128 -39.44535,-6.89355 -39.44535,-6.89355 l -1.53369,-121.40479 c 0,0 3.06535,-3.63811 15.25634,-3.76611 12.192,-0.128 14.0435,3.38379 14.0435,3.38379 0,0 -1.5311,76.596 -1.9161,90 -0.383,13.404 4.7857,8.42432 4.7857,8.42432 l 37.916,-98.67921 c 15.448,-8.554 24.8936,1.40332 24.8936,1.40332 0,0 13.0217,24.51158 24.5127,62.80958 11.488,38.297 17.2338,42.12597 17.2338,42.12597 0,0 -2.2998,-99.57412 -2.2998,-104.74512 0,-5.17 7.3739,-5.55276 16.2789,-6.03076 8.904,-0.479 10.913,6.22266 10.913,6.22266 v 122.93701 c -8.8562,4.42813 -16.44,5.97574 -22.6831,6.01172 z m -2773.3081,-9.82763 c -6.5107,0.018 -12.0715,0.0186 -15.3267,-0.0132 -13.021,-0.128 -12.1289,-7.27734 -12.1289,-7.27734 l -1.021,-121.46778 c 0,0 52.5325,-0.447 62.0435,0 9.51,0.447 20.9355,-2.9369 20.9355,7.8501 0,10.787 -7.9146,10.08545 -7.9146,10.08545 l -44.4257,0.38232 c -4.978,14.17 -0.3838,44.04346 -0.3838,44.04346 h 42.895 c 8.042,7.276 0.6694,20.9209 0.6694,20.9209 l -44.3305,0.9082 c -7.659,5.362 -1.5308,25.27735 -1.5308,25.27735 l 47.4888,0.38232 c 0,0 8.6816,-2.29722 7.6596,8.42578 -1.021,10.724 -7.021,10.21289 -7.021,10.21289 0,0 -28.077,0.21539 -47.6088,0.26954 z m 1339.52343,-27.88331 -238.40333,-685.4839 c -8.617,6.51 -13.59668,15.57422 -13.59668,15.57422 -236.681,668.681 -263.48844,591.82866 -320.16944,637.78566 -56.681,45.958 -474.89508,29.10645 -474.89508,29.10645 V 368.4262 c 62.169,-1.5 119.2222,-30.93164 170.7452,-76.95264 v -882.89797 l -37.4678,-37.46778 h -88.3403 c 0,0 -12.2552,-2.0411 -12.7662,-14.8081 -0.51,-12.766 11.7442,-12.25635 38.8082,-12.25635 h 252.6386 c 0,0 15.7017,1.14911 15.7017,13.78711 0,12.639 -16.8501,13.78711 -16.8501,13.78711 h -86.1709 l -36.8936,36.76611 v 846.00149 c 0,0 -0.2767,6.39587 3.8233,5.19287 2.151,-2.305 4.2929,-4.6337 6.4219,-6.9917 -1.085,1.178 -2.0583,2.12144 -2.9253,2.85644 l 3.2973,-3.27539 c 162.04103,-179.784996 261.37229,-511.07613 282.48929,-573.87013 29.106,-86.553 87.70179,-225.57321 134.42579,-282.63721 46.723,-57.064 93.8291,-42.89356 93.8291,-42.89356 0,0 300.44813,881.8079 312.70313,920.2969 12.256,38.489 12.89356,0 12.89356,0 V -477.63828 L 69.956388,-109.02059 V 366.38274 H 199.53061 v 28.03857 z m 77.36279,-60.46289 220.59522296875,-0.76611 V 4.0546876e-4 L -219.44694,-219.44638 Z m -758.2339,-45 c 6,-0.319 14.23388,-4.021 14.23388,-4.021 101.234,-21.064 148.59578,-167.74558 161.48878,-198.767579 12.894,-31.021 14.68066,-64.97754 14.68066,-64.97754 18.894,-11.6170005 30.12744,-38.809572 30.12744,-38.809572 l 75.06299,-189.190439 2.29834,-75.44677 c 30.639,-4.213 34.08545,-19.91602 34.08545,-19.91602 l 31.021,-70.46778 c 0,0 -3.06321,-16.46789 -17.61621,-40.21289 -14.553,-23.745 -10.72412,-42.12744 -10.72412,-42.12744 -8.042,-19.148 -14.55322,-24.50977 -14.55322,-24.50977 0,0 -25.65924,50.9351 -42.51124,83.8711 -16.85,32.936 -91.91308,230.93555 -91.91308,230.93555 0.382,56.681 -4.97901,71.619145 -4.97901,71.619145 -29.107,24.51 -41.36279,48.637208 -41.36279,48.637208 l -54.76612,144.000004 -2.6792,40.404783 c 0,0 -6.22413,0.19112 -7.18213,1.24512 -0.957,1.053 -5.07421,6.09375 -5.07421,6.09375 0,0 -52.59578,98.2988 -70.46778,125.3628 -8.936,13.532 -5.16943,16.59634 0.83057,16.27734 z m -790.25392,-83.16651 c -16.783,-0.14814 -29.3862,-2.94873 -29.3862,-2.94873 -4.276,-4.212 -3.4468,-7.6582 -3.4468,-7.6582 l -0.3823,-121.020998 c 38.298,-10.724 82.3403,1.913086 82.3403,1.913086 42.128,27.192002 30.6387,83.107912 30.6387,83.107912 -12.2075,39.73375 -51.792,46.85385 -79.7637,46.60693 z m 3026.1387,-26.12402 c -1.2929,-4.2e-4 -2.6102,-0.0192 -3.9506,-0.0571 0,0 -57.7003,-10.21323 -53.6163,-71.49023 4.086,-61.277005 29.6168,-65.362342 68.4258,-63.319342 38.808,2.042 58.2122,23.424658 58.7212,61.722662 0,0 11.8771,73.17058 -69.5801,73.14404 z m -3016.1514,-0.60644 c 12.9817,0.0562 31.1434,-2.78696 35.6909,-18.34571 0,0 23.3617,-42.51088 -15.3193,-66.254883 0,0 -23.0747,-8.616887 -33.7017,0.766113 l -0.3823,82.72266 c 0,0 5.9234,1.0781 13.7124,1.11182 z M 1265.619,154.74943 c 15.802,0.0951 26.168,-12.7998 26.168,-12.7998 0,0 14.171,-22.21221 4.979,-53.616215 -9.191,-31.405 -44.4258,-23.362793 -44.4258,-23.362793 0,0 -16.4695,-1.14787 -24.8935,38.682128 -8.426,39.83 26.4243,48.63721 26.4243,48.63721 4.1649,1.7235 8.1014,2.43754 11.748,2.45947 z M 841.38707,-66.008385 c -1.19681,0.03983 -1.89844,-0.120117 -1.89844,-0.120117 -48,-71.999998 -67.40378,-69.444648 -92.42578,-84.764648 -25.019,-15.319 -92.93555,-1.53223 -92.93555,-1.53223 l -201.70166,36.76611 c -9.448,-12.639 -1.27735,-26.8081 -1.27735,-26.8081 159.319,-47.489 257.36134,-135.57569 257.36134,-135.57569 119.49,-111.064 115.40478,-274.72266 115.40478,-274.72266 15.574,-14.554 37.78711,-1.78711 37.78711,-1.78711 0,0 7.4039,455.234456 -1.7871,473.106456 -6.894,13.40475 -14.93691,15.318504 -18.52735,15.437989 z m 499.28323,-23.30713 c -16.0126,-0.496959 -16.7124,-14.989745 -16.7124,-14.989745 l -0.7661,-116.042 c -0.191,-0.511 4.0209,-4.21322 14.2339,-5.55322 10.213,-1.341 11.4243,5.55322 11.4243,5.55322 0,0 0.129,66.12656 0,84.89356 -0.127,18.766 5.3628,8.93555 5.3628,8.93555 19.532,-44.809 51.3193,-94.2129 51.3193,-94.2129 27.191,-13.404 32.5518,6.89502 32.5518,6.89502 l -1.1485,121.785652 c -15.318,5.744 -26.4258,-3.829102 -26.4258,-3.829102 l 5.3614,-104.93555 c -18.766,26.042 -57.8277,108.000003 -57.8277,108.000003 -7.2052,2.680782 -12.8895,3.638661 -17.373,3.499512 z M -1890.7736,-207.01425 c -1.293,-4.3e-4 -2.6103,-0.0192 -3.9507,-0.0571 0,0 -57.7012,-10.21277 -53.6162,-71.48877 4.085,-61.277 29.6167,-65.3628 68.4257,-63.3208 38.808,2.043 58.2117,23.42612 58.7227,61.72412 0,0 11.8756,73.17008 -69.5815,73.14258 z m 8.5634,-24.91699 c 15.8017,0.0948 26.1665,-12.79834 26.1665,-12.79834 0,0 14.17,-22.21414 4.979,-53.61914 -9.192,-31.404 -44.4257,-23.35987 -44.4257,-23.35987 0,0 -16.4671,-1.14933 -24.8921,38.68067 -8.426,39.829 26.4243,48.63721 26.4243,48.63721 4.1649,1.72331 8.1015,2.4376 11.748,2.45947 z m 2119.1456,-98.70703 -537.19045,-538.34035 c 0,0 59.74412,-236.68058 252.766122,-369.95658 193.020998,-133.278 329.743028,-176.9366 554.937028,-120.6386 225.189,56.298 361.91309,258.5105 361.91309,585.95651 0,0 -12.44667,15.1279 -21.63867,-3.8291 -9.191,-18.958 -55.34056,-281.10671 -244.91456,-346.59671 -189.574,-65.49 -406.46856,211.66083 -365.87256,793.40483 z m 1170.917,-48.12305 c -16.783,-0.14815 -29.3847,-2.94873 -29.3847,-2.94873 -4.276,-4.212 -3.4468,-7.65821 -3.4468,-7.65821 l -0.3853,-121.02246 c 38.299,-10.722 82.3433,1.91455 82.3433,1.91455 42.127,27.192 30.6387,83.10791 30.6387,83.10791 -12.2082,39.73375 -51.7934,46.85385 -79.7652,46.60694 z m 9.9873,-26.73047 c 12.9815,0.0562 31.1428,-2.78696 35.6909,-18.34571 0,0 23.3612,-42.50988 -15.3178,-66.25488 0,0 -23.0772,-8.61789 -33.7032,0.76611 l -0.3823,82.72266 c 0,0 5.9235,1.0781 13.7124,1.11182 z m -3333.2213,-110.63086 c -16.7831,-0.14815 -29.3847,-2.94873 -29.3847,-2.94873 -4.276,-4.213 -3.4468,-7.65821 -3.4468,-7.65821 l -0.3823,-121.02246 c 38.298,-10.723 82.3388,1.91455 82.3388,1.91455 42.128,27.192 30.6387,83.10791 30.6387,83.10791 -12.2069,39.73375 -51.7918,46.85385 -79.7637,46.60694 z m 9.9874,-26.73194 c 12.9816,0.056 31.1434,-2.78611 35.6909,-18.34424 0,0 23.3616,-42.51088 -15.3194,-66.25488 0,0 -23.0736,-8.61689 -33.7016,0.76611 l -0.3824,82.72266 c 0,0 5.9234,1.07676 13.7125,1.11035 z m 2024.47559,-81.86426 c 3.43336,0.0312 2.19433,-10.00488 2.19433,-10.00488 l 1.27735,-60.38233 c 12.448,-17.042 11.00976,-60.70166 11.00976,-60.70166 14.043,-9.192 8.42579,-71.521 8.42579,-71.521 -1.34,-19.723 6.22412,-25.18213 6.22412,-25.18213 2.489,-43.468 11.10644,-52.08398 11.10644,-52.08398 17.361,-23.49 8.68064,-62.81014 14.80664,-79.66114 6.127,-16.85103 14.10938,-22.97753 14.10938,-22.97753 58.019,4.213 53.80664,-35.6162 53.80664,-35.6162 14.936,-11.49 17.23358,-26.4269 31.78858,-42.1289 14.552,-15.702 8.93554,-103.0225 8.93554,-103.0225 46.852,1.022 76.2129,-15.3179 76.2129,-15.3179 61.275,-22.468 87.31767,-16.8516 150.63867,-28.5966 63.318,-11.744 21.44531,-33.1905 21.44531,-33.1905 -74.041,-12.766 -140.23266,-31.8506 -161.68066,-35.6806 -21.447,-3.829 -66.82911,-3.6372 -66.82911,-3.6372 -27.318,21.446 -90.00122,32.8069 -98.55322,38.1679 -8.553,5.362 -7.1499,23.2354 -7.1499,23.2354 -27.062,0.127 -37.14844,2.9355 -37.14844,2.9355 -62.426003,23.746 -95.743658,59.7451 -95.743658,59.7451 0,0 -152.810687,152.4249 -162.575687,161.2339 -9.766005,8.808 -0.446778,18.2564 -0.446778,18.2564 -21.190997,39.06298 -60.511227,76.08397 -60.511227,76.08397 -30.127,20.68 -5.61622,34.21289 -5.61622,34.21289 46.722,17.872 92.425788,77.00977 92.425788,77.00977 1.532,17.618 48.767123,47.07567 70.7241227,62.13867 21.9570003,15.064 30.3823253,26.80957 30.3823253,26.80957 -3.256,12.255 29.872786,35.99967 40.404786,43.65967 10.531,7.659 9.893555,13.27588 9.893555,13.27588 l 35.232423,38.80957 c 2.40175,2.992 4.066,4.12046 5.21045,4.13086 z m 1282.74031,-48.12598 c -1.293,-4.3e-4 -2.6103,-0.0192 -3.9507,-0.0571 0,0 -57.7002,-10.21177 -53.6162,-71.48877 4.086,-61.276 29.6163,-65.36133 68.4243,-63.31933 38.809,2.043 58.2136,23.42565 58.7256,61.72265 0,0 11.8741,73.17008 -69.583,73.14258 z m 8.562,-24.91699 c 15.8019,0.0945 26.1679,-12.79834 26.1679,-12.79834 0,0 14.17,-22.21368 4.979,-53.61768 -9.191,-31.404 -44.4257,-23.36133 -44.4257,-23.36133 0,0 -16.4691,-1.14933 -24.8921,38.68067 -8.426,39.83 26.4228,48.63867 26.4228,48.63867 4.165,1.72332 8.1015,2.4362 11.7481,2.45801 z m -3294.3942,-145.00049 c -16.0119,-0.49648 -16.7138,-14.98975 -16.7138,-14.98975 l -0.7661,-116.04346 c -0.191,-0.51 4.0208,-4.21176 14.2338,-5.55176 10.213,-1.341 11.4273,5.55176 11.4273,5.55176 0,0 0.127,66.12902 0,84.89502 -0.128,18.766 5.3599,8.93555 5.3599,8.93555 19.532,-44.808 51.3193,-94.21289 51.3193,-94.21289 27.192,-13.404 32.5547,6.89355 32.5547,6.89355 l -1.1499,121.78712 c -15.32,5.745 -26.4258,-3.82911 -26.4258,-3.82911 l 5.3628,-104.93701 c -18.766,26.043 -57.8306,108 -57.8306,108 -7.2047,2.681 -12.8882,3.63999 -17.3716,3.50098 z m 3144.7999,-220.76519 c -16.7829,-0.1481 -29.3847,-2.9487 -29.3847,-2.9487 -4.277,-4.213 -3.4468,-7.6582 -3.4468,-7.6582 l -0.3838,-121.0225 c 38.297,-10.723 82.3403,1.9161 82.3403,1.9161 42.129,27.192 30.6387,83.1064 30.6387,83.1064 -12.2069,39.7338 -51.7921,46.8539 -79.7637,46.6069 z m 9.9873,-26.7319 c 12.9819,0.056 31.1426,-2.7861 35.6895,-18.3442 0,0 23.3641,-42.5099 -15.3179,-66.2549 0,0 -23.0732,-8.6169 -33.7002,0.7661 l -0.3852,82.7227 c 0,0 5.9247,1.0767 13.7138,1.1103 z m -2996.1036,-40.5 c -1.2929,-4e-4 -2.6088,-0.019 -3.9492,-0.057 0,0 -57.7027,-10.2118 -53.6177,-71.4888 4.085,-61.276 29.6178,-65.3609 68.4258,-63.3179 38.808,2.042 58.2117,23.4242 58.7227,61.7212 0,0 11.8756,73.1692 -69.5816,73.1426 z m 8.5621,-24.917 c 15.8017,0.095 26.1679,-12.7998 26.1679,-12.7998 0,0 14.17,-22.2122 4.979,-53.6162 -9.191,-31.404 -44.4243,-23.3613 -44.4243,-23.3613 0,0 -16.47,-1.1508 -24.895,38.6792 -8.426,39.83 26.4258,48.6401 26.4258,48.6401 4.1649,1.7233 8.1,2.4362 11.7466,2.458 z m 2827.9219,-162.5288 c -6.5106,0.018 -12.0717,0.017 -15.3267,-0.015 -13.021,-0.128 -12.1289,-7.2774 -12.1289,-7.2774 l -1.021,-121.4692 c 0,0 52.532,-0.445 62.042,0 9.511,0.448 20.937,-2.9355 20.937,7.8515 0,10.787 -7.916,10.0869 -7.916,10.0869 l -44.4258,0.3824 c -4.978,14.17 -0.3823,44.042 -0.3823,44.042 h 42.895 c 8.041,7.277 0.6695,20.9209 0.6695,20.9209 l -44.3306,0.9096 c -7.66,5.362 -1.5308,25.2759 -1.5308,25.2759 l 47.4888,0.3838 c 0,0 8.6817,-2.2972 7.6597,8.4258 -1.021,10.724 -7.021,10.2129 -7.021,10.2129 0,0 -28.0772,0.2154 -47.6089,0.2695 z m -2574.9903,-65.3643 c -13.7345,0.08 -20.9751,-7.1616 -20.9751,-7.1616 l -34.8516,-89.6177 -42.1274,94.9791 c -35.234,6.128 -39.4468,-6.8921 -39.4468,-6.8921 l -1.5322,-121.4063 c 0,0 3.0639,-3.6376 15.2549,-3.7646 12.192,-0.129 14.0434,3.3838 14.0434,3.3838 0,0 -1.533,76.595 -1.916,90 -0.383,13.404 4.7871,8.4243 4.7871,8.4243 l 37.916,-98.6807 c 15.447,-8.553 24.8936,1.4033 24.8936,1.4033 0,0 13.0212,24.5106 24.5112,62.8096 11.489,38.297 17.2339,42.1274 17.2339,42.1274 0,0 -2.2983,-99.5751 -2.2983,-104.7451 0,-5.17 7.3719,-5.5517 16.2759,-6.0307 8.904,-0.478 10.9145,6.2226 10.9145,6.2226 v 122.9356 c -8.8562,4.4284 -16.4401,5.977 -22.6831,6.0131 z m 2399.64264,-132.7793 c -14.17,-0.574 -16.08692,-9.5742 -16.08692,-9.5742 0,0 0.44722,-103.2768 0.57422,-111.3178 0.129,-8.043 2.04346,-8.6822 2.04346,-8.6822 0,0 27.83011,-4.3401 49.78711,-2.6821 21.957,1.661 25.78678,2e-4 26.42578,9.4482 0.638,9.447 -8.55322,9.0645 -8.55322,9.0645 0,0 -33.70212,-0.5748 -37.72412,-0.3838 -4.021,0.192 -3.63721,5.3628 -3.63721,5.3628 l 0.38232,97.8501 c 0,0 0.95858,11.4885 -13.21142,10.9145 z M 661.98179,-1748.692 c -25.3461,-0.3848 -38.6206,-18.1231 -38.6206,-18.1231 -38.808,-44.043 -13.91468,-93.0651 5.36132,-105.5771 19.277,-12.51 64.46924,-3.5742 64.46924,-3.5742 16.469,9.574 13.78587,15.704 10.33887,22.979 -3.447,7.278 -29.4873,-5.3614 -29.4873,-5.3614 0,0 -37.14991,-11.4884 -42.12891,45.9566 11.49,62.426 62.04199,34.0869 62.04199,34.0869 0,0 8.61724,-0.67 11.96924,4.979 3.349,5.648 -2.01123,11.1064 -2.01123,11.1064 -16.39594,10.2922 -30.41166,13.7028 -41.93262,13.5279 z m -1727.81989,-36.961 c -1.2929,-4e-4 -2.6088,-0.019 -3.9492,-0.057 0,0 -57.7027,-10.2138 -53.6177,-71.4888 4.085,-61.277 29.6178,-65.3623 68.4258,-63.3193 38.808,2.043 58.21267,23.4252 58.72267,61.7212 0,0 11.87557,73.1715 -69.58157,73.144 z m 8.5635,-24.917 c 15.8017,0.094 26.168,-12.7998 26.168,-12.7998 0,0 14.171,-22.2136 4.979,-53.6176 -9.191,-31.404 -44.4258,-23.3614 -44.4258,-23.3614 0,0 -16.4686,-1.1478 -24.8936,38.6822 -8.426,39.83 26.4244,48.6386 26.4244,48.6386 4.1649,1.7234 8.1015,2.4363 11.748,2.458 z m 1451.87699,-71.5722 c -6.51084,0.018 -12.07116,0.017 -15.32666,-0.015 -13.021,-0.127 -12.12744,-7.2758 -12.12744,-7.2758 l -1.021,-121.4693 c 0,0 52.53346,-0.447 62.04346,0 9.509,0.448 20.93408,-2.9354 20.93408,7.8516 0,10.787 -7.91308,10.084 -7.91308,10.084 l -44.42578,0.3837 c -4.978,14.172 -0.38233,44.0435 -0.38233,44.0435 h 42.89209 c 8.043,7.277 0.6709,20.9194 0.6709,20.9194 l -44.3291,0.9097 c -7.66,5.361 -1.53369,25.2774 -1.53369,25.2774 l 47.49023,0.3823 c 0,0 8.67967,-2.2978 7.65967,8.4272 -1.021,10.722 -7.021,10.2129 -7.021,10.2129 0,0 -28.07782,0.2146 -47.61035,0.2681 z m -1221.75296,-28.1382 c -9.33511,-0.045 -15.88141,-0.1997 -16.74316,-0.5347 -3.447,-1.342 -3.44667,-13.0219 -2.68067,-16.0869 0.766,-3.064 11.10566,-5.5519 23.74366,-4.2129 12.639,1.34 16.46902,-1.5308 15.89502,-21.4468 -0.575,-19.914 -1.14991,-87.892 -1.14991,-87.892 0,0 15.70289,-5.7446 26.23389,0.1904 l 1.91602,109.9145 35.42431,1.1514 c 0,0 6.31991,-0.3853 6.12891,8.6147 -0.192,9 -7.66113,9.5757 -7.66113,9.5757 0,0 -53.10161,0.8613 -81.10694,0.7266 z m 269.0127,-67.6318 c -16.01192,-0.4977 -16.71386,-14.9898 -16.71386,-14.9898 l -0.76612,-116.042 c -0.192,-0.51 4.02089,-4.2142 14.23389,-5.5532 10.212,-1.34 11.42578,5.5532 11.42578,5.5532 0,0 0.128,66.129 0,84.895 -0.127,18.765 5.36133,8.9341 5.36133,8.9341 19.532,-44.808 51.31934,-94.2129 51.31934,-94.2129 27.192,-13.404 32.55322,6.895 32.55322,6.895 l -1.14844,121.7872 c -15.319,5.744 -26.42578,-3.8306 -26.42578,-3.8306 l 5.36279,-104.9341 c -18.766,26.04 -57.83056,108 -57.83056,108 -7.20475,2.6804 -12.88825,3.6374 -17.37159,3.4981 z m 695.92092,-0.8072 c -13.73421,0.079 -20.9751,-7.1601 -20.9751,-7.1601 l -34.851562,-89.6177 -42.127442,94.9775 c -35.2340005,6.127 -39.4467788,-6.8906 -39.4467788,-6.8906 l -1.5322266,-121.4048 c 0,0 3.064348,-3.6386 15.2563484,-3.7676 12.191,-0.127 14.041992,3.3853 14.041992,3.3853 0,0 -1.530086,76.595 -1.913086,90 -0.385,13.402 4.78711,8.4229 4.78711,8.4229 l 37.913087,-98.6792 c 15.447,-8.553 24.893555,1.4033 24.893555,1.4033 0,0 13.021233,24.5105 24.511233,62.8095 11.49,38.297 17.23389,42.1275 17.23389,42.1275 0,0 -2.29834,-99.5751 -2.29834,-104.7451 0,-5.169 7.37334,-5.5527 16.27734,-6.0337 8.904,-0.478 10.91309,6.2256 10.91309,6.2256 v 122.9355 c -8.85625,4.4278 -16.44029,5.9758 -22.68311,6.0117 z m -389.26466,-20.4228 c -6.51065,0.018 -12.07262,0.017 -15.32812,-0.015 -13.021,-0.127 -12.12745,-7.2759 -12.12745,-7.2759 l -1.02099,-121.4692 c 0,0 52.53246,-0.447 62.04346,0 9.51,0.448 20.93554,-2.9354 20.93554,7.8516 0,10.787 -7.91455,10.084 -7.91455,10.084 l -44.42578,0.3837 c -4.978,14.172 -0.38232,44.0435 -0.38232,44.0435 h 42.89209 c 8.043,7.277 0.6709,20.9194 0.6709,20.9194 l -44.33057,0.9097 c -7.659,5.361 -1.53076,25.2773 -1.53076,25.2773 l 47.48877,0.3824 c 0,0 8.68067,-2.2978 7.65967,8.4272 -1.022,10.722 -7.021,10.2129 -7.021,10.2129 0,0 -28.07692,0.2146 -47.60889,0.2681 z"
         transform="matrix(1.3333333,0,0,-1.3333333,3957.7128,2177.5543)" />
    </g>
  </g>
</svg>
